# Exported from Wings 3D 2.4.1
mtllib cube.mtl
o Cube1
#8 vertices, 6 faces
v -1.00000000 -1.00000000 -1.00000000
v -1.00000000 -1.00000000 1.00000000
v -1.00000000 1.00000000 -1.00000000
v -1.00000000 1.00000000 1.00000000
v 1.00000000 -1.00000000 -1.00000000
v 1.00000000 -1.00000000 1.00000000
v 1.00000000 1.00000000 -1.00000000
v 1.00000000 1.00000000 1.00000000
vt 0.0000000e+0 0.0000000e+0
vt 0.0000000e+0 0.33333333
vt 0.0000000e+0 0.66666667
vt 5.5511151e-17 1.00000000
vt 1.1102230e-16 0.33333333
vt 1.1102230e-16 0.66666667
vt 0.33333333 0.0000000e+0
vt 0.33333333 0.33333333
vt 0.33333333 0.66666667
vt 0.33333333 0.66666667
vt 0.33333333 1.00000000
vt 0.33333333 0.33333333
vt 0.33333333 0.66666667
vt 0.33333333 1.00000000
vt 0.33333333 5.5511151e-17
vt 0.33333333 0.33333333
vt 0.66666667 0.0000000e+0
vt 0.66666667 0.66666667
vt 0.66666667 1.00000000
vt 0.66666667 2.7755576e-17
vt 0.66666667 0.33333333
vt 1.00000000 0.0000000e+0
vt 1.00000000 0.33333333
vn -0.57735027 -0.57735027 -0.57735027
vn -0.57735027 -0.57735027 0.57735027
vn -0.57735027 0.57735027 -0.57735027
vn -0.57735027 0.57735027 0.57735027
vn 0.57735027 -0.57735027 -0.57735027
vn 0.57735027 -0.57735027 0.57735027
vn 0.57735027 0.57735027 -0.57735027
vn 0.57735027 0.57735027 0.57735027
g Cube1_Cube1_auv
usemtl Cube1_auv
s 1
f 1/21/1 5/16/5 6/15/6 2/17/2
f 2/8/2 4/13/4 3/6/3 1/2/1
f 2/1/2 6/7/6 8/12/8 4/5/4
f 3/11/3 7/4/7 5/3/5 1/9/1
f 4/20/4 8/22/8 7/23/7 3/21/3
f 5/18/5 7/19/7 8/14/8 6/10/6
