# Exported from Wings 3D 2.4.1
mtllib deer.mtl
o Cube2
#45 vertices, 30 faces
v -1.00000000 0.0000000e+0 -1.00000000
v -1.00000000 0.0000000e+0 1.00000000
v -1.00000000 2.00000000 -1.00000000
v -1.00000000 2.00000000 1.00000000
v 1.00000000 0.0000000e+0 -1.00000000
v 1.00000000 0.0000000e+0 1.00000000
v 1.00000000 2.00000000 -1.00000000
v 1.00000000 2.00000000 1.00000000
v 1.00000000 1.00000000 1.00000000
v -1.00000000 1.00000000 1.00000000
v -0.33333333 0.0000000e+0 3.11900554
v 0.33333333 0.0000000e+0 3.11900554
v -0.33333333 1.00000000 1.79006488
v 0.33333333 1.00000000 1.79006488
v -0.33333333 0.50000000 3.09002218
v 0.33333333 0.50000000 3.09002218
v 1.00000000 2.00000000 -0.33333333
v 1.00000000 2.00000000 0.33333333
v 0.11111111 0.50000000 3.09002218
v -0.11111111 0.50000000 3.09002218
v -1.00000000 2.00000000 -0.33333333
v -1.00000000 2.00000000 0.33333333
v -0.33333333 2.00000000 1.00000000
v 0.33333333 2.00000000 1.00000000
v 1.00000000 1.50000000 1.00000000
v 0.66666667 1.50000000 1.39503244
v 2.22374180 3.22374180 1.00000000
v 2.22374180 3.22374180 0.33333333
v 1.80672722 1.66628178 0.94345212
v 0.48863574 2.80133390 0.95308325
v -1.00000000 1.50000000 1.00000000
v -2.22575972 3.22575972 1.00000000
v -2.22575972 3.22575972 0.33333333
v -1.80870876 1.66621295 0.94351810
v -0.48857184 2.80332264 0.95313451
v -0.66666667 1.50000000 1.39503244
v -2.22575972 3.22575972 0.66666667
v -2.22575972 2.36287986 0.66666667
v -2.22575972 2.36287986 1.00000000
v -1.27954653 3.22575972 1.00000000
v -1.27954653 3.22575972 0.66666667
v 2.22374180 2.36187090 1.00000000
v 2.22374180 2.36187090 0.66666667
v 1.27853757 3.22374180 0.66666667
v 1.27853757 3.22374180 1.00000000
vn -0.57735027 -0.57735027 -0.57735027
vn -0.91462869 -0.36951692 0.16404757
vn -0.57735027 0.57735027 -0.57735027
vn -0.21440841 0.16984342 0.96186394
vn 0.57735027 -0.57735027 -0.57735027
vn 0.91462869 -0.36951692 0.16404757
vn 0.57735027 0.57735027 -0.57735027
vn 0.21441333 0.16983559 0.96186423
vn 0.90180075 5.9718473e-2 0.42800598
vn -0.90180075 5.9718473e-2 0.42800598
vn -0.51435048 -0.40315307 0.75690897
vn 0.51435048 -0.40315307 0.75690897
vn -0.51655384 0.54905684 0.65704544
vn 0.51655384 0.54905684 0.65704544
vn -0.39938978 0.53420914 0.74505597
vn 0.39938978 0.53420914 0.74505597
vn 0.70710678 0.70710678 0.0000000e+0
vn 0.41950038 0.37749589 -0.82553999
vn 0.0000000e+0 0.58975603 0.80758147
vn 0.0000000e+0 0.58975603 0.80758147
vn -0.70710678 0.70710678 0.0000000e+0
vn -0.41940192 0.37745201 -0.82561008
vn 0.15956402 0.81467527 0.55753343
vn -0.15965079 0.81465710 0.55753514
vn 0.87309187 -0.17028301 0.45685259
vn 0.52500740 0.28390380 0.80235022
vn 0.37397580 0.36388611 0.85307034
vn 0.37519474 0.32621995 -0.86764593
vn 0.87964844 -0.45576942 0.13598848
vn -0.42756725 0.89690217 0.11292804
vn -0.87312502 -0.17018396 0.45682615
vn -0.37400941 0.36394756 0.85302938
vn -0.37515302 0.32625066 -0.86765242
vn -0.87977454 -0.45557368 0.13582847
vn 0.42738503 0.89700500 0.11280099
vn -0.52500740 0.28390380 0.80235022
vn -0.71077556 0.70341886 5.9136169e-16
vn -0.78329353 -0.39332802 -0.48139830
vn -0.70811912 -0.11020497 0.69743973
vn 9.6731108e-2 0.70766802 0.69989218
vn 0.36151203 0.77713213 -0.51514533
vn 0.70812469 -0.11035525 0.69741031
vn 0.78333629 -0.39356210 -0.48113733
vn -0.36171905 0.77717192 -0.51493993
vn -9.6847599e-2 0.70767239 0.69987166
g Cube2_default
usemtl default
s 1
f 1//1 5//5 6//6 12//12 11//11 2//2
f 2//2 10//10 31//31 22//22 21//21 3//3 1//1
f 2//2 11//11 15//15 13//13 10//10
f 3//3 7//7 5//5 1//1
f 4//4 31//31 36//36
f 4//4 32//32 39//39 34//34 31//31
f 4//4 36//36 23//23
f 5//5 7//7 17//17 18//18 25//25 9//9 6//6
f 8//8 24//24 26//26
f 8//8 27//27 45//45 30//30 24//24
f 9//9 14//14 16//16 12//12 6//6
f 9//9 26//26 14//14
f 10//10 36//36 31//31
f 12//12 16//16 19//19 20//20 15//15 11//11
f 13//13 15//15 20//20 19//19 16//16 14//14
f 13//13 36//36 10//10
f 14//14 26//26 24//24 23//23 36//36 13//13
f 18//18 24//24 30//30 44//44 28//28
f 21//21 22//22 23//23 24//24 18//18 17//17 7//7 3//3
f 22//22 31//31 34//34 38//38 33//33
f 23//23 35//35 40//40 32//32 4//4
f 25//25 26//26 9//9
f 25//25 29//29 42//42 27//27 8//8
f 26//26 25//25 8//8
f 27//27 42//42 29//29 43//43 28//28
f 28//28 43//43 29//29 25//25 18//18
f 28//28 44//44 30//30 45//45 27//27
f 33//33 38//38 34//34 39//39 32//32 37//37
f 33//33 41//41 35//35 23//23 22//22
f 37//37 32//32 40//40 35//35 41//41 33//33
