# Exported from Wings 3D 2.4.1
mtllib deer_tex.mtl
o Cube2
#32 vertices, 30 faces
v -1.00000000 0.0000000e+0 -1.00000000
v -1.00000000 0.0000000e+0 1.00000000
v -1.00000000 2.00000000 -1.00000000
v -1.00000000 2.00000000 1.00000000
v 1.00000000 0.0000000e+0 -1.00000000
v 1.00000000 0.0000000e+0 1.00000000
v 1.00000000 2.00000000 -1.00000000
v 1.00000000 2.00000000 1.00000000
v 1.00000000 1.00000000 1.00000000
v -1.00000000 1.00000000 1.00000000
v -0.33333333 0.0000000e+0 3.11900554
v 0.33333333 0.0000000e+0 3.11900554
v -0.33333333 1.00000000 1.79006488
v 0.33333333 1.00000000 1.79006488
v -0.33333333 0.50000000 3.09002218
v 0.33333333 0.50000000 3.09002218
v 1.00000000 2.00000000 0.33333333
v -1.00000000 2.00000000 0.33333333
v -0.33333333 2.00000000 1.00000000
v 0.33333333 2.00000000 1.00000000
v 1.00000000 1.50000000 1.00000000
v 0.66666667 1.50000000 1.39503244
v 2.22374180 3.22374180 1.00000000
v 2.22374180 3.22374180 0.33333333
v 1.80672722 1.66628178 0.94345212
v 0.48863574 2.80133390 0.95308325
v -1.00000000 1.50000000 1.00000000
v -2.22575972 3.22575972 1.00000000
v -2.22575972 3.22575972 0.33333333
v -1.80870876 1.66621295 0.94351810
v -0.48857184 2.80332264 0.95313451
v -0.66666667 1.50000000 1.39503244
vt 1.4222222e-4 0.30562114
vt 1.4222222e-4 0.53974738
vt 1.4222222e-4 0.61053585
vt 1.4222222e-4 0.99573333
vt 4.7241719e-3 0.55200481
vt 1.2399647e-2 0.30562114
vt 3.8338291e-2 0.12015839
vt 7.1670180e-2 0.80649397
vt 7.8291183e-2 0.99549593
vt 7.8291183e-2 0.99573333
vt 8.4919920e-2 0.80649397
vt 0.13214379 9.5440739e-2
vt 0.13539015 0.15396249
vt 0.14317199 0.68927053
vt 0.15622638 0.54791900
vt 0.15644014 0.96976266
vt 0.15644014 0.99549593
vt 0.15644014 0.80649397
vt 0.17005552 7.7119758e-2
vt 0.20072450 0.24464561
vt 0.20376208 0.74788225
vt 0.20472089 2.7703057e-4
vt 0.21340691 0.14941879
vt 0.23426846 0.55200481
vt 0.23458910 0.96976266
vt 0.23458910 0.80649397
vt 0.23458910 0.80649397
vt 0.23458910 0.86520408
vt 0.23733282 0.49347325
vt 0.24039717 0.43494169
vt 0.24652589 0.31787857
vt 0.26435217 0.57204709
vt 0.26435217 0.68927053
vt 0.26435217 0.74788225
vt 0.26435217 0.80649397
vt 0.28273765 -4.2666667e-3
vt 0.29142367 0.14487509
vt 0.29784004 0.49664104
vt 0.31273806 0.86520408
vt 0.31273806 0.80649397
vt 0.31506884 0.23775342
vt 0.32608904 6.8032364e-2
vt 0.34250113 0.80649397
vt 0.36141162 0.44127727
vt 0.36587023 8.1828511e-2
vt 0.36944043 0.14033139
vt 0.46168089 9.5509943e-2
vt 0.49879905 0.57204709
vt 0.49879905 0.80649397
vt 0.50684666 0.31143765
vt 0.50836220 0.37012819
vt 0.52113020 0.24413045
vt 0.52113020 0.27504116
vt 0.52113020 0.55672629
vt 0.52113020 0.71302422
vt 0.52113020 0.79117318
vt 0.52113020 0.47857733
vt 0.59927916 -4.2666667e-3
vt 0.59927916 0.47857733
vt 0.67742812 -4.2666667e-3
vt 0.67742812 0.47857733
vt 0.73070377 0.71851795
vt 0.75557708 0.24413045
vt 0.75557708 0.49001743
vt 0.75557708 0.49001743
vt 0.75557708 0.71302422
vt 0.75557708 9.9789175e-2
vt 0.75557708 0.47857733
vt 0.75557708 0.55672629
vt 0.75557708 0.72446431
vt 0.75557708 0.72996405
vt 0.77198106 0.28860295
vt 0.78177762 0.19221495
vt 0.85735029 0.24300735
vt 0.86553370 8.8650828e-2
vt 0.88752255 0.33591714
vt 0.89568221 -4.2666667e-3
vt 0.96491273 0.72446431
vt 0.96491273 0.80261327
vt 0.97127069 0.43926719
vt 0.98128558 4.1367722e-2
vt 0.99002396 0.49001743
vt 0.99002396 0.72446431
vt 0.99747681 0.34707870
vt 0.99769426 0.24300735
vn -0.57735027 -0.57735027 -0.57735027
vn -0.91462869 -0.36951692 0.16404757
vn -0.57735027 0.57735027 -0.57735027
vn -0.22162074 0.17442924 0.95940538
vn 0.57735027 -0.57735027 -0.57735027
vn 0.91462869 -0.36951692 0.16404757
vn 0.57735027 0.57735027 -0.57735027
vn 0.22165023 0.17443482 0.95939755
vn 0.90180075 5.9718473e-2 0.42800598
vn -0.90180075 5.9718473e-2 0.42800598
vn -0.51435048 -0.40315307 0.75690897
vn 0.51435048 -0.40315307 0.75690897
vn -0.51655384 0.54905684 0.65704544
vn 0.51655384 0.54905684 0.65704544
vn -0.39938978 0.53420914 0.74505597
vn 0.39938978 0.53420914 0.74505597
vn 0.44069232 0.39487703 -0.80614044
vn -0.44052192 0.39476591 -0.80628799
vn 0.16277140 0.81734271 0.55268108
vn -0.16285457 0.81733288 0.55267110
vn 0.87376569 -0.17346428 0.45436072
vn 0.52500740 0.28390380 0.80235022
vn 0.33601390 0.31792836 0.88657555
vn 0.33726520 0.27672158 -0.89982073
vn 0.84341480 -0.51731696 0.14503321
vn -0.48998022 0.86327427 0.12114835
vn -0.87379429 -0.17337111 0.45434128
vn -0.33608398 0.31805159 0.88650479
vn -0.33724172 0.27679622 -0.89980658
vn -0.84356018 -0.51712881 0.14485862
vn 0.48979889 0.86339727 0.12100496
vn -0.52500740 0.28390380 0.80235022
g Cube2_Cube2_auv
usemtl Cube2_auv
s 1
f 1/68/1 5/57/5 6/52/6 12/58/12 11/60/11 2/63/2
f 2/31/2 10/30/10 27/29/27 18/15/18 3/2/3 1/6/1
f 2/31/2 11/50/11 15/51/15 13/44/13 10/30/10
f 3/83/3 7/70/7 5/65/5 1/82/1
f 3/55/3 18/54/18 19/59/19 20/61/20 17/69/17 7/66/7
f 4/24/4 27/29/27 32/38/32
f 4/13/4 28/1/28 30/7/30 27/12/27
f 4/13/4 32/19/32 19/23/19
f 5/48/5 7/49/7 17/43/17 21/34/21 9/33/9 6/32/6
f 8/46/8 20/37/20 22/42/22
f 8/46/8 23/53/23 26/41/26 20/37/20
f 9/33/9 14/14/14 16/3/16 12/5/12 6/32/6
f 9/33/9 22/21/22 14/14/14
f 10/30/10 32/38/32 27/29/27
f 12/40/12 16/39/16 15/28/15 11/27/11
f 13/16/13 15/18/15 16/26/16 14/25/14
f 13/44/13 32/38/32 10/30/10
f 14/36/14 22/42/22 20/37/20 19/23/19 32/19/32 13/22/13
f 17/76/17 20/84/20 26/80/26 24/64/24
f 18/75/18 27/77/27 30/81/30 29/85/29
f 19/23/19 31/20/31 28/1/28 4/13/4
f 21/34/21 22/21/22 9/33/9
f 21/45/21 25/47/25 23/53/23 8/46/8
f 22/21/22 21/34/21 8/35/8
f 23/9/23 25/11/25 24/17/24
f 24/64/24 25/72/25 21/74/21 17/76/17
f 24/79/24 26/71/26 23/78/23
f 28/55/28 31/62/31 29/56/29
f 29/4/29 30/8/30 28/10/28
f 29/85/29 31/73/31 19/67/19 18/75/18
